<?xml version="1.0" standalone="no"?>
<!DOCTYPE svg PUBLIC "-//W3C//DTD SVG 20010904//EN"
 "http://www.w3.org/TR/2001/REC-SVG-20010904/DTD/svg10.dtd">
<svg version="1.0" xmlns="http://www.w3.org/2000/svg"
 width="3000.000000pt" height="3000.000000pt" viewBox="0 0 3000.000000 3000.000000"
 preserveAspectRatio="xMidYMid meet">
<metadata>
Created by potrace 1.11, written by Peter Selinger 2001-2013
</metadata>
<g transform="translate(0.000000,3000.000000) scale(0.100000,-0.100000)"
fill="#000000" stroke="none">
<path d="M14075 27400 c-1814 -66 -3346 -284 -4780 -681 -1395 -386 -2679
-968 -3729 -1691 -2178 -1497 -3591 -3671 -4201 -6463 -158 -725 -255 -1458
-307 -2335 -17 -286 -17 -1432 0 -1710 49 -791 123 -1419 239 -2030 l37 -195
409 -544 c377 -501 412 -551 449 -640 55 -132 147 -310 210 -406 29 -44 97
-125 153 -181 107 -108 186 -160 286 -188 52 -15 164 -25 173 -15 2 2 0 29 -5
59 -203 1268 -317 2431 -350 3560 -13 448 -6 2011 10 2340 5 113 13 279 16
370 29 799 118 1678 252 2473 30 184 34 220 22 228 -50 32 -200 48 -280 29
-82 -19 -182 -76 -259 -147 l-70 -65 70 205 c557 1640 1414 2922 2608 3904
443 365 1033 743 1599 1027 1828 914 4225 1401 7373 1495 1671 51 3171 -9
4535 -180 2590 -324 4658 -1052 6200 -2182 598 -438 1141 -965 1581 -1532 605
-781 1063 -1686 1370 -2709 24 -82 43 -151 40 -153 -2 -2 -19 18 -39 44 -49
67 -152 164 -211 198 -118 69 -254 97 -361 75 -33 -7 -65 -14 -71 -17 -8 -3
-16 20 -23 64 -16 90 -76 329 -95 374 -26 62 -175 152 -294 178 -163 34 -252
-6 -312 -143 l-22 -47 -50 73 c-149 217 -381 439 -498 476 -91 29 -232 37
-665 36 -473 -1 -490 -2 -566 -54 l-44 -29 -6 307 c-7 340 -10 362 -78 507
-94 199 -244 322 -440 359 -62 12 -1416 13 -8879 10 -4844 -2 -8854 -6 -8912
-8 -196 -8 -344 -70 -471 -196 -168 -167 -219 -338 -219 -733 l0 -207 -40 26
c-36 24 -54 28 -177 36 -186 13 -856 3 -948 -14 -89 -17 -156 -61 -289 -188
-112 -108 -190 -200 -270 -320 -45 -66 -57 -79 -62 -64 -16 45 -43 104 -49
104 -3 0 1 -12 8 -27 13 -25 12 -30 -31 -91 -57 -81 -129 -219 -143 -275 -20
-79 -57 -269 -64 -325 -3 -32 -10 -86 -15 -122 -5 -36 -18 -148 -30 -250 -11
-102 -23 -201 -25 -220 -35 -292 -47 -484 -60 -1015 -3 -115 -8 -232 -10 -260
-2 -27 -7 -102 -10 -165 -3 -63 -7 -162 -10 -220 -6 -122 -11 -249 -22 -560
-9 -260 -9 -2510 1 -2890 3 -140 8 -349 11 -465 2 -115 7 -275 11 -355 3 -80
8 -224 10 -320 1 -96 5 -226 8 -288 3 -70 1 -110 -4 -107 -6 4 -10 -3 -10 -14
0 -12 7 -21 15 -21 17 0 21 -25 5 -35 -5 -3 -7 -12 -3 -20 3 -9 0 -22 -7 -30
-6 -8 -9 -19 -5 -25 9 -15 12 -108 4 -122 -4 -6 -19 -12 -32 -12 -14 -1 -23 2
-21 6 3 4 1 8 -5 8 -5 0 -12 -6 -14 -12 -3 -7 -6 0 -6 15 -1 16 -5 26 -10 23
-5 -4 -7 3 -4 14 3 11 1 20 -4 20 -6 0 -16 26 -23 58 -8 31 -15 64 -18 72 -2
8 -4 32 -4 52 -1 22 -5 35 -11 31 -6 -4 -8 2 -5 15 4 12 3 20 -2 17 -4 -2 -13
30 -19 73 -7 42 -15 88 -18 102 -3 14 -6 39 -7 57 0 17 -5 29 -10 26 -5 -3 -7
8 -4 26 2 17 1 31 -2 31 -6 0 -19 98 -23 165 0 11 -4 22 -9 25 -8 6 -8 9 -8
165 0 141 -39 519 -56 547 -9 14 -24 9 -24 -8 0 -8 -4 -13 -9 -10 -15 10 -26
-126 -24 -299 3 -176 17 -305 36 -317 8 -4 10 -55 9 -150 -2 -145 26 -573 53
-813 9 -71 26 -173 39 -225 13 -52 24 -102 24 -110 -1 -19 11 -144 18 -195 3
-22 5 -47 6 -55 0 -8 4 -40 9 -70 4 -30 11 -82 14 -115 3 -33 7 -67 10 -75 5
-19 14 -66 20 -109 3 -19 7 -46 9 -60 3 -14 10 -60 16 -101 6 -41 13 -88 15
-105 8 -50 34 -177 44 -209 5 -17 14 -58 21 -91 12 -53 52 -212 84 -331 6 -23
17 -48 24 -57 43 -51 211 -93 198 -49 -11 36 -17 90 -21 167 -2 44 -4 82 -5
85 -6 17 -2 169 5 180 5 7 4 11 -1 8 -5 -4 -9 7 -10 24 -1 18 2 26 8 20 10
-10 71 -296 84 -397 4 -33 9 -63 10 -67 1 -5 2 -13 3 -18 3 -29 141 79 141
110 0 24 20 4 80 -77 95 -128 195 -225 275 -264 64 -31 72 -33 243 -41 259
-14 725 -5 835 16 99 18 124 29 215 92 l62 43 0 -692 c0 -670 1 -694 20 -745
86 -226 231 -408 386 -487 113 -57 -117 -53 3475 -61 l3319 -7 0 -41 c-1 -116
-22 -507 -35 -635 -34 -324 -110 -696 -196 -953 -42 -127 -125 -337 -138 -350
-4 -5 -1628 -8 -3610 -8 -2252 0 -3600 -4 -3596 -10 6 -10 -28 -6 -47 6 -7 4
-8 3 -4 -4 5 -9 -102 -12 -428 -12 -279 0 -437 4 -441 10 -4 7 -710 10 -2086
10 l-2079 0 0 -2770 0 -2770 15000 0 15000 0 0 2770 0 2770 -2064 0 c-1366 0
-2067 -3 -2071 -10 -10 -16 -1007 -13 -1024 2 -11 11 -12 10 -6 -2 6 -12 5
-13 -6 -3 -10 10 -748 13 -3620 13 l-3607 0 -40 98 c-206 496 -331 1160 -332
1760 l0 132 3373 0 3372 0 84 50 c115 68 179 120 262 208 77 82 139 196 158
290 7 35 11 285 11 748 l0 695 58 -45 c113 -89 199 -117 407 -135 139 -12 465
-13 712 -2 167 8 174 9 239 41 79 39 172 126 266 253 l66 88 20 -29 c36 -49
160 -104 150 -65 -7 28 74 449 90 465 6 6 9 -2 8 -20 -1 -17 -5 -28 -10 -24
-5 3 -6 -1 -1 -8 7 -11 11 -163 5 -180 -1 -3 -3 -41 -5 -85 -4 -78 -10 -131
-22 -169 -5 -17 -1 -18 45 -14 27 3 67 14 88 25 65 33 110 145 175 433 6 25
15 62 20 83 11 39 36 161 43 207 3 14 14 79 25 145 11 66 21 136 22 155 2 19
6 40 10 45 4 6 10 51 14 100 11 133 11 139 1 147 -19 13 -7 357 14 418 4 14
11 45 14 70 3 25 12 89 20 142 9 62 11 111 6 135 -6 24 -5 42 2 50 7 9 7 13
-1 13 -7 0 -11 6 -10 13 3 25 -1 37 -15 37 -7 0 -19 7 -26 16 -8 8 -23 20 -34
25 -17 9 -17 7 3 -9 20 -16 21 -20 7 -25 -11 -5 -15 -15 -12 -32 3 -15 1 -23
-5 -19 -6 3 -9 0 -7 -7 1 -8 -6 -26 -16 -41 -10 -16 -16 -35 -12 -43 5 -13 2
-14 -17 -4 -18 9 -20 9 -9 -2 18 -19 15 -49 -5 -49 -15 0 -16 2 -3 10 19 12 8
13 -24 0 -21 -7 -27 -6 -34 8 -11 24 -6 110 7 126 9 10 8 15 -5 20 -10 4 -14
13 -11 26 3 11 1 23 -4 26 -15 9 -10 34 6 34 8 0 15 9 15 21 0 11 -4 18 -9 14
-13 -7 -9 88 4 97 7 5 6 8 -1 8 -11 0 -11 270 -1 430 12 172 18 315 22 530 3
129 8 339 11 465 10 352 10 2651 1 2900 -12 343 -16 442 -22 555 -3 58 -7 157
-10 220 -3 63 -8 138 -10 165 -2 28 -7 145 -10 260 -13 531 -25 723 -60 1015
-2 19 -14 118 -25 220 -12 102 -25 214 -30 250 -5 36 -12 90 -15 120 -19 163
-54 306 -101 409 -45 99 -59 125 -103 190 l-44 64 24 45 c27 53 98 102 143
102 79 -1 257 -73 304 -123 32 -34 120 -402 192 -797 161 -891 260 -1872 312
-3100 17 -393 17 -1647 0 -1980 -66 -1334 -177 -2369 -378 -3530 -26 -146 -50
-301 -54 -345 -6 -71 -17 -111 -45 -179 -6 -13 -5 -17 2 -13 6 4 30 46 54 94
32 65 49 117 64 198 l21 110 74 6 c187 16 369 144 520 366 29 43 89 112 133
153 161 150 471 517 761 902 l118 157 13 170 c8 94 39 406 70 693 143 1360
179 1944 179 2913 0 710 -17 1107 -74 1685 -311 3148 -1523 5573 -3631 7267
-199 159 -288 225 -299 218 -6 -4 -9 -2 -8 5 2 6 -18 27 -45 46 -32 24 -45 30
-40 18 5 -14 3 -16 -18 -10 -13 4 -28 8 -34 9 -5 2 -20 8 -32 15 -24 14 -45
16 -25 3 11 -7 10 -9 -3 -14 -9 -4 -13 -3 -10 3 8 13 -28 30 -54 25 -13 -2
-24 2 -27 10 -3 7 -13 13 -22 13 -21 -1 -60 7 -86 18 -13 5 -17 4 -12 -4 5 -8
2 -10 -8 -6 -9 3 -13 10 -10 15 3 5 -2 9 -10 9 -24 0 -23 0 -68 16 -33 11 -43
12 -50 2 -6 -10 -8 -10 -8 0 0 6 -11 12 -25 12 -14 0 -25 6 -25 13 0 7 -8 13
-19 13 -11 0 -17 -5 -14 -13 5 -13 -14 -10 -42 6 -5 3 -19 7 -30 8 -10 2 -30
11 -43 19 -14 9 -21 11 -18 5 4 -6 5 -11 3 -11 -11 0 -61 30 -67 40 -4 7 -24
13 -44 13 -20 1 -36 5 -36 9 0 4 -5 8 -10 8 -6 0 -9 -4 -8 -9 2 -5 -1 -9 -7
-10 -5 -1 -11 4 -11 9 -1 6 -2 12 -3 15 0 3 -10 1 -20 -5 -15 -7 -23 -6 -34 5
-8 8 -17 11 -21 8 -3 -3 -8 2 -12 11 -7 19 -60 22 -67 4 -3 -8 -6 -6 -6 5 -1
17 -7 18 -86 21 -42 2 -105 25 -105 39 0 8 -4 7 -9 -2 -7 -12 -13 -12 -40 0
-17 8 -31 16 -31 19 0 3 -26 6 -57 7 -31 1 -59 7 -63 13 -4 6 -11 10 -16 9 -5
-2 -27 5 -48 14 -22 10 -45 16 -52 13 -7 -3 -15 2 -19 11 -4 12 -9 13 -16 6
-11 -11 -49 -6 -49 7 0 4 -21 7 -46 7 -27 0 -49 5 -54 13 -4 7 -14 10 -21 8
-8 -3 -29 1 -47 8 -18 7 -30 9 -27 4 9 -15 0 -12 -23 9 -14 12 -33 17 -52 15
-17 -2 -30 0 -30 5 0 15 -31 21 -52 10 -15 -8 -24 -7 -36 4 -9 8 -43 18 -74
22 -32 3 -58 10 -58 15 0 5 -26 14 -57 20 -32 6 -65 14 -73 17 -8 3 -22 7 -30
8 -8 1 -35 8 -60 15 -25 7 -49 14 -55 16 -5 1 -30 7 -55 14 -45 12 -90 20
-122 23 -10 1 -18 5 -18 9 0 4 -10 5 -21 3 -12 -2 -30 0 -41 6 -10 5 -35 12
-55 15 -20 2 -42 9 -50 15 -7 6 -25 13 -40 14 -38 3 -130 20 -135 25 -5 3 -32
10 -65 16 -18 4 -31 9 -28 13 2 4 -8 8 -23 9 -15 0 -36 3 -47 6 -11 2 -28 5
-38 5 -10 1 -16 5 -13 10 4 5 -3 7 -13 4 -11 -3 -41 2 -68 10 -26 8 -55 15
-63 15 -8 0 -40 8 -70 17 -30 9 -70 17 -87 17 -18 1 -33 5 -33 9 0 4 -15 9
-32 12 -18 3 -44 8 -58 11 -14 4 -32 9 -40 11 -8 2 -15 4 -15 5 0 3 -38 10
-71 14 -17 2 -41 9 -53 16 -13 6 -32 10 -42 7 -12 -3 -17 -1 -12 6 4 6 1 8 -8
5 -8 -3 -25 -1 -39 5 -14 5 -35 9 -47 8 -13 -1 -23 3 -23 9 0 8 -6 8 -21 0
-17 -9 -25 -8 -41 7 -11 10 -22 17 -24 15 -2 -2 -30 2 -62 9 -31 8 -61 14 -67
14 -5 1 -23 4 -40 8 -16 4 -41 10 -55 13 -14 3 -37 7 -52 7 -14 1 -24 5 -22 9
2 4 -8 7 -23 7 -16 -1 -50 4 -78 11 -27 6 -57 11 -65 11 -8 0 -22 3 -30 6 -8
4 -28 8 -45 10 -16 2 -36 4 -42 5 -7 1 -13 4 -13 8 0 4 -6 7 -12 7 -7 0 -29 4
-48 8 -19 4 -48 9 -65 10 -16 2 -30 4 -30 5 0 1 -7 3 -15 5 -8 2 -35 8 -59 13
-24 6 -52 9 -62 7 -11 -2 -19 -1 -19 3 0 8 -6 9 -72 14 -21 1 -38 5 -38 8 0 6
-21 8 -83 10 -15 1 -42 7 -60 14 -18 8 -41 12 -52 10 -11 -2 -49 5 -85 15 -36
10 -72 19 -80 20 -56 4 -100 10 -117 15 -11 4 -46 9 -78 12 -31 2 -65 9 -75
14 -10 5 -28 7 -40 5 -13 -2 -27 -2 -33 2 -5 3 -26 7 -46 9 -20 2 -47 5 -61 8
-82 18 -110 22 -225 36 -49 6 -119 13 -155 15 -36 3 -81 8 -100 11 -19 4 -46
8 -60 10 -14 1 -41 5 -60 8 -92 14 -108 17 -155 21 -57 6 -147 14 -220 20 -27
2 -50 4 -50 5 0 1 -18 3 -40 5 -106 9 -210 22 -210 25 0 3 -71 8 -195 13 -58
3 -114 7 -125 10 -11 3 -74 8 -140 12 -66 4 -122 8 -125 10 -3 2 -55 6 -115 9
-61 4 -144 9 -185 13 -41 3 -100 7 -130 8 -30 1 -95 5 -145 9 -49 4 -129 9
-177 11 -48 2 -91 6 -97 9 -5 4 -12 2 -16 -3 -3 -5 -15 -7 -28 -4 -12 3 -87 7
-167 8 -80 2 -145 4 -145 5 0 7 -1112 12 -1385 5 -261 -6 -545 -17 -790 -30
-69 -4 -156 -8 -195 -10 -187 -10 -282 -16 -305 -20 -22 -4 -150 -13 -275 -20
-37 -2 -118 -8 -250 -21 -27 -2 -63 -6 -80 -9 -16 -2 -59 -7 -95 -10 -62 -5
-213 -20 -310 -30 -25 -3 -69 -8 -99 -11 -30 -2 -58 -7 -63 -10 -4 -3 -38 -7
-75 -10 -38 -3 -81 -7 -98 -9 -16 -2 -57 -7 -90 -10 -33 -3 -85 -10 -115 -15
-65 -11 -250 -40 -300 -46 -19 -3 -44 -7 -55 -11 -11 -3 -40 -7 -65 -9 -25 -1
-70 -8 -100 -14 -30 -7 -66 -14 -80 -15 -14 -2 -38 -6 -55 -9 -16 -3 -48 -8
-70 -11 -35 -5 -68 -11 -165 -29 -14 -3 -36 -8 -50 -11 -14 -3 -46 -8 -72 -10
-26 -3 -59 -10 -73 -15 -14 -5 -25 -8 -25 -5 0 2 -15 -1 -32 -6 -18 -5 -53
-12 -78 -15 -24 -3 -50 -9 -56 -15 -6 -5 -14 -6 -17 -3 -3 3 -36 -2 -74 -12
-37 -9 -77 -16 -88 -16 -11 1 -42 -5 -70 -13 -27 -7 -70 -17 -95 -20 -53 -8
-75 -13 -75 -16 0 -1 -9 -3 -20 -5 -27 -4 -60 -12 -60 -14 0 -1 -16 -3 -35 -5
-54 -6 -102 -15 -140 -28 -19 -6 -38 -10 -42 -9 -4 1 -42 -8 -85 -20 -43 -12
-93 -22 -110 -22 -18 -1 -33 -4 -33 -8 0 -5 -29 -12 -103 -23 -12 -2 -44 -11
-71 -19 -27 -9 -60 -16 -73 -16 -12 0 -23 -4 -23 -8 0 -5 -6 -9 -12 -9 -23 -2
-93 -15 -100 -20 -20 -12 -105 -25 -155 -24 -18 1 -35 -4 -38 -9 -4 -6 -11 -8
-16 -4 -6 3 -20 -2 -31 -13 -12 -10 -18 -12 -14 -6 5 9 2 11 -8 7 -9 -3 -13
-11 -9 -18 4 -8 3 -8 -6 0 -10 9 -20 8 -44 -4 -17 -8 -51 -15 -76 -15 -53 1
-104 -15 -95 -29 4 -6 -2 -8 -14 -4 -11 4 -23 2 -27 -4 -5 -8 -11 -7 -22 1 -9
8 -17 9 -21 3 -4 -5 -16 -11 -27 -12 -11 -2 -22 -7 -25 -10 -3 -4 -23 -8 -44
-9 -22 -1 -42 -7 -45 -12 -4 -6 -12 -6 -21 -1 -20 13 -31 12 -27 -1 1 -6 -9
-12 -23 -13 -52 -5 -110 -18 -110 -26 0 -5 -13 -5 -30 0 -25 7 -30 6 -31 -8 0
-9 -3 -12 -5 -6 -5 11 -30 10 -64 -4 -26 -10 -50 -10 -50 1 0 5 -10 -1 -21
-14 -21 -24 -21 -24 -15 -1 6 18 3 22 -13 22 -12 0 -21 -5 -21 -11 0 -7 -17
-10 -45 -7 -34 2 -45 0 -45 -11 0 -8 -3 -11 -7 -8 -3 4 -13 1 -21 -6 -10 -7
-13 -8 -9 -1 4 7 -1 14 -12 17 -12 3 -22 -1 -26 -11 -5 -13 -8 -12 -20 6 -13
17 -20 19 -47 11 -48 -13 -54 -11 -30 11 12 12 22 24 22 27 0 3 -8 -1 -18 -10
-25 -22 -39 -22 -19 1 13 15 14 20 2 42 -8 14 -14 21 -15 17 0 -10 -30 19 -30
29 0 5 5 3 12 -4 16 -16 33 -15 19 1 -13 16 -5 27 20 27 9 0 20 8 24 18 5 14
4 15 -6 5 -7 -7 -19 -13 -26 -13 -20 0 17 34 55 49 17 7 30 17 27 21 -3 4 2
13 10 20 8 7 13 16 10 20 -3 5 0 12 6 16 8 5 9 3 4 -6 -5 -9 -4 -11 3 -6 7 4
12 15 12 24 0 14 2 14 9 3 11 -16 31 -6 31 16 0 9 6 13 15 9 8 -3 14 0 12 6
-1 7 17 21 40 33 52 26 74 45 68 55 -3 5 5 6 17 3 18 -4 20 -2 9 5 -12 9 -10
12 12 17 15 4 27 11 27 16 0 5 8 9 18 9 18 1 63 30 46 30 -5 1 8 7 28 14 20 7
44 21 53 30 9 9 23 16 31 16 8 0 12 5 9 10 -3 6 1 10 9 10 22 0 106 42 101 50
-3 4 7 6 20 4 14 -1 23 2 19 7 -5 8 17 14 39 10 5 -1 6 3 3 8 -8 12 30 25 46
15 7 -4 10 -4 6 1 -7 7 74 54 94 55 4 0 32 11 62 25 30 14 59 25 65 25 6 0 26
9 46 20 19 11 38 20 43 21 4 1 33 14 65 29 31 15 57 22 57 17 0 -6 8 -3 18 6
10 10 22 14 25 10 4 -3 7 -1 7 5 0 7 6 12 14 12 8 0 27 5 43 12 15 6 33 12 38
12 6 1 19 6 30 13 11 6 22 11 25 11 3 0 17 5 31 10 14 6 45 16 70 23 24 7 46
16 49 19 5 6 123 44 128 41 1 -1 16 6 32 14 17 9 30 13 30 10 0 -3 14 1 30 10
17 9 30 13 30 10 0 -3 14 1 30 10 17 9 30 13 30 10 0 -3 13 1 29 9 16 9 31 12
35 9 3 -4 6 0 6 7 0 7 3 11 6 7 3 -3 31 3 62 14 31 11 67 20 79 21 13 2 23 6
23 10 0 4 7 8 15 8 9 0 44 9 78 21 34 12 73 23 87 25 14 3 41 10 60 16 31 10
55 17 70 21 3 0 34 9 70 20 72 20 212 56 249 63 14 3 29 8 34 11 5 3 46 14 91
25 44 10 88 21 96 23 23 7 153 36 175 40 11 2 43 8 70 15 45 10 219 44 285 55
14 2 63 12 110 21 47 8 102 16 123 17 20 1 37 5 37 8 0 7 164 27 263 32 9 1
17 4 17 7 0 4 16 6 35 5 19 -1 56 1 82 5 44 7 109 15 218 27 50 5 170 14 250
18 59 3 169 12 249 20 22 3 89 7 148 9 58 3 126 8 150 11 54 7 251 14 513 20
110 2 210 7 222 10 12 3 25 0 28 -5 4 -6 12 -7 18 -3 11 7 65 15 97 14 45 -2
169 1 270 5 63 3 162 7 220 9 58 2 143 6 190 9 47 2 132 7 190 10 58 3 157 9
220 12 63 4 151 8 195 9 44 2 184 7 310 11 263 9 1081 11 1198 2 45 -3 77 -2
77 4 0 5 6 6 13 1 6 -4 39 -9 72 -9 101 -3 433 -22 485 -28 19 -3 64 -7 100
-10 36 -3 94 -9 130 -12 36 -3 81 -7 100 -9 94 -9 222 -23 265 -31 33 -5 95
-13 140 -18 17 -2 41 -6 55 -10 23 -6 73 -11 208 -21 29 -2 63 -7 75 -11 12
-4 38 -9 57 -10 19 -1 37 -3 40 -4 3 -1 9 -2 13 -1 4 1 38 -4 75 -10 37 -7 78
-13 92 -15 14 -1 66 -10 115 -18 50 -9 119 -20 155 -26 36 -5 81 -13 100 -16
95 -16 144 -25 245 -43 61 -10 124 -21 140 -24 17 -3 52 -10 79 -16 27 -7 55
-10 63 -7 7 3 13 2 13 -3 0 -4 6 -8 13 -9 12 -1 36 -5 122 -23 28 -5 66 -12
85 -15 40 -5 103 -19 175 -39 28 -8 73 -17 100 -21 28 -4 55 -9 60 -12 11 -7
28 -10 68 -14 15 -1 27 -5 27 -8 0 -4 7 -7 15 -7 18 0 101 -18 225 -50 52 -13
111 -26 130 -29 19 -3 65 -13 102 -23 37 -11 69 -16 72 -13 3 3 6 1 6 -4 0 -6
10 -11 23 -11 27 -2 155 -32 182 -42 11 -5 63 -18 115 -30 52 -11 104 -23 115
-26 11 -4 31 -8 44 -11 13 -3 38 -11 55 -18 17 -7 58 -18 91 -25 33 -8 96 -25
140 -38 96 -30 88 -28 150 -38 28 -4 56 -12 63 -17 6 -6 12 -7 12 -3 0 4 7 2
15 -5 8 -7 15 -9 15 -5 0 4 6 3 13 -2 12 -10 85 -28 100 -25 4 1 7 -2 7 -6 0
-4 8 -8 18 -9 25 -1 146 -35 152 -42 3 -3 12 -7 20 -7 30 -3 55 -9 60 -16 3
-4 18 -9 34 -12 41 -7 159 -47 173 -58 7 -5 20 -8 30 -6 35 7 -607 232 -991
348 -1475 443 -3051 687 -5041 781 -291 13 -1775 20 -2080 9z m-6535 -1795 c0
-8 -7 -15 -15 -15 -13 0 -14 3 -3 15 16 18 18 18 18 0z m50 -25 c0 -5 -7 -7
-15 -4 -8 4 -15 8 -15 10 0 2 7 4 15 4 8 0 15 -4 15 -10z m16130 -440 c0 -5
-2 -10 -4 -10 -3 0 -8 5 -11 10 -3 6 -1 10 4 10 6 0 11 -4 11 -10z m268 -75
c-3 -3 -9 2 -12 12 -6 14 -5 15 5 6 7 -7 10 -15 7 -18z m-63 -3750 c97 -21
171 -59 236 -124 65 -66 107 -137 145 -246 l28 -80 7 -1890 c4 -1039 10 -3441
13 -5337 l7 -3448 -320 0 -320 0 -4 -157 c-1 -87 -4 2264 -5 5225 -2 4636 -4
5387 -16 5411 -8 15 -26 32 -41 39 -20 9 -1994 12 -8691 12 l-8666 0 -29 -29
-29 -29 -2 -5649 c-2 -3106 -4 -5462 -5 -5235 l-3 412 -315 0 -315 0 2 5308 3
5307 22 76 c61 215 176 341 368 407 l80 27 8215 5 c4518 3 8519 6 8890 7 564
2 686 0 745 -12z m-345 -6320 l0 -5595 -8605 0 -8605 0 0 5595 0 5595 8605 0
8605 0 0 -5595z m-21112 4898 c-47 -121 -156 -417 -193 -528 -19 -55 -55 -156
-81 -225 -25 -69 -59 -161 -74 -205 -16 -44 -47 -132 -69 -195 -23 -63 -43
-124 -46 -135 -13 -60 -28 -105 -35 -105 -4 0 -7 -8 -6 -17 0 -10 -11 -56 -26
-103 -59 -184 -114 -374 -143 -493 -2 -10 -6 -26 -9 -35 -3 -9 -8 -28 -10 -42
-3 -14 -10 -43 -15 -65 -78 -339 -111 -488 -116 -525 -1 -8 -5 -28 -9 -45 -11
-50 -16 -76 -32 -174 -8 -52 -17 -97 -19 -100 -1 -3 -6 -31 -10 -61 -4 -30 -8
-57 -10 -60 -2 -3 -15 -82 -29 -176 -15 -94 -29 -181 -31 -193 -3 -11 -7 -31
-10 -43 -3 -13 -7 -43 -10 -68 -12 -110 -18 -146 -25 -160 -4 -8 -10 -33 -14
-55 -6 -43 -25 -158 -30 -190 -2 -11 -9 -40 -15 -65 -7 -25 -13 -56 -15 -69
-1 -13 -9 -29 -19 -36 -9 -6 -14 -14 -12 -17 3 -3 -2 -11 -12 -19 -9 -8 -14
-9 -10 -2 4 6 0 18 -8 26 -17 17 -20 31 -6 22 5 -3 13 -1 16 5 4 6 1 9 -7 8
-7 -2 -14 4 -14 12 -1 8 -3 18 -4 23 -1 4 -3 15 -4 25 -1 9 -6 37 -10 62 -8
43 -13 103 -20 258 -1 39 -5 75 -9 78 -3 3 -3 11 -1 18 3 7 1 24 -5 37 -6 16
-5 32 1 43 8 14 7 17 -1 12 -6 -4 -11 -1 -11 8 0 8 4 17 8 20 8 4 8 41 1 56
-3 7 -7 53 -11 120 -2 33 -9 60 -18 68 -8 8 -9 11 -2 7 8 -4 12 1 12 14 0 12
-4 21 -8 21 -5 0 -7 15 -6 33 2 17 6 72 9 122 9 145 35 360 43 363 5 1 7 23 5
47 -3 35 0 45 12 45 15 0 19 11 15 39 -1 10 3 9 16 -3 14 -15 15 -19 3 -27 -8
-5 -9 -9 -4 -9 19 0 38 17 27 24 -6 4 -9 13 -5 21 3 9 0 22 -7 30 -10 12 -9
15 9 15 15 0 22 8 26 28 12 57 21 77 35 77 8 0 16 6 16 13 3 25 6 27 15 7 l9
-20 -3 20 c-2 13 -9 20 -24 19 -21 -1 -21 0 -6 22 8 13 24 24 34 24 11 0 19 5
19 10 0 6 -6 10 -12 10 -9 0 -9 3 1 9 8 5 11 16 8 25 -4 9 1 21 11 28 9 7 19
24 21 38 2 14 4 31 6 39 1 8 8 17 16 20 8 3 15 15 17 26 1 11 9 38 16 60 31
94 37 115 40 132 2 10 11 36 19 58 20 57 37 111 42 133 2 11 10 41 19 66 9 26
16 55 16 66 0 10 4 20 9 22 6 2 12 14 14 28 3 14 19 63 37 110 17 47 33 93 35
104 2 10 8 23 13 30 5 6 22 49 37 96 15 47 31 90 35 95 5 6 8 12 9 15 0 6 1
10 47 130 20 52 38 105 41 118 3 12 9 22 14 22 5 0 9 7 9 15 0 8 8 29 18 47
10 18 35 73 56 123 20 49 45 98 54 109 9 11 11 16 4 12 -7 -4 1 16 18 44 17
28 42 79 56 113 14 34 34 76 45 93 10 17 15 35 11 39 -4 5 -1 5 6 1 7 -4 12
-2 12 6 0 14 104 224 122 245 6 7 7 13 4 13 -4 0 -1 7 6 15 31 34 36 43 30 51
-4 4 -2 4 5 0 7 -4 18 2 25 14 7 11 18 20 24 20 7 0 0 -30 -18 -77z m25686
-1183 c1 -2 20 -24 43 -48 24 -24 42 -49 40 -55 -1 -7 4 -11 11 -9 6 1 11 -1
10 -5 -4 -14 13 -53 23 -53 5 0 8 -3 7 -7 -1 -5 3 -19 9 -33 6 -14 12 -29 13
-35 1 -5 11 -22 21 -37 10 -14 19 -32 19 -40 0 -8 4 -18 8 -23 5 -6 15 -29 22
-52 7 -24 17 -43 22 -43 5 0 6 -4 3 -10 -3 -5 -1 -10 5 -10 7 0 10 -7 6 -15
-3 -8 -1 -15 4 -15 6 0 9 -3 8 -7 -2 -5 6 -28 16 -53 11 -25 20 -47 21 -50 0
-3 13 -36 27 -75 27 -70 37 -104 38 -117 0 -4 9 -28 20 -53 11 -25 20 -49 20
-53 2 -15 12 -58 17 -72 4 -8 6 -18 5 -22 -1 -4 5 -23 14 -43 51 -124 136
-1216 98 -1266 -6 -8 -11 -25 -12 -38 0 -13 -6 -27 -13 -31 -6 -4 -9 -12 -6
-17 3 -5 -5 -22 -19 -38 -13 -15 -24 -23 -24 -18 0 6 -7 13 -15 17 -8 3 -14 0
-12 -6 1 -6 -4 -13 -12 -16 -10 -3 -12 0 -8 11 4 10 -1 18 -14 22 -10 4 -17
10 -14 15 3 5 -3 13 -12 19 -14 8 -15 11 -3 11 10 1 8 4 -6 13 -12 7 -20 20
-19 29 2 9 -4 19 -12 22 -8 3 -12 10 -9 15 3 5 -1 14 -9 21 -8 7 -15 18 -15
25 0 7 -7 16 -16 19 -9 3 -14 12 -11 19 3 8 0 14 -7 14 -6 0 -12 -16 -12 -36
0 -20 -3 -49 -6 -66 -3 -16 -1 -40 3 -52 5 -13 5 -23 1 -23 -4 0 -8 -114 -10
-253 -1 -138 -4 -277 -7 -307 -2 -30 -4 -66 -4 -79 -1 -13 -3 -22 -6 -19 -3 2
-12 106 -20 229 -31 453 -77 891 -140 1329 -36 249 -96 616 -119 725 -13 62
-13 65 6 65 17 0 18 7 16 70 -1 39 -5 70 -8 70 -3 0 -5 10 -6 23 -2 49 -22
206 -29 225 -2 6 0 12 6 12 6 0 4 6 -4 14 -10 11 -14 37 -13 95 1 45 -2 81 -6
81 -4 0 -3 11 2 24 5 13 6 27 2 32 -4 4 -2 4 4 1 6 -3 18 7 28 24 9 16 14 29
11 29 -3 0 -3 5 1 11 4 8 10 5 17 -7 6 -11 11 -21 11 -24z m-24274 -152 c0 -3
9 -4 21 -1 15 4 22 0 26 -16 4 -15 12 -21 27 -20 24 2 98 -28 108 -45 5 -7 8
-6 8 4 0 10 5 7 16 -8 8 -12 21 -22 27 -22 17 0 47 -36 39 -46 -4 -4 -2 -4 5
0 7 4 9 14 6 24 -6 15 -5 15 10 3 9 -7 17 -10 17 -6 0 5 8 1 18 -8 22 -20 37
-11 20 12 -10 12 -8 12 8 -1 11 -10 26 -18 32 -18 7 0 12 -7 12 -15 0 -8 -5
-15 -12 -15 -6 0 -9 -2 -6 -5 9 -10 38 7 32 19 -3 6 2 2 10 -8 12 -15 16 -16
16 -5 1 12 2 12 13 -1 14 -17 37 -24 37 -11 0 5 -6 12 -12 14 -10 4 -10 6 -1
6 6 1 14 -3 17 -8 3 -5 15 -7 26 -4 11 3 28 -1 37 -8 11 -9 14 -10 9 -2 -9 16
24 6 39 -11 17 -18 78 -60 71 -47 -5 7 1 11 14 11 14 0 19 4 14 13 -6 8 -3 8
9 -1 9 -8 22 -10 28 -6 7 4 9 3 5 -4 -3 -6 -1 -14 5 -18 8 -4 9 -3 5 4 -4 7
-2 12 4 12 6 0 9 4 6 9 -4 5 5 4 18 -2 13 -7 22 -16 18 -22 -3 -5 1 -4 10 3
12 10 18 9 28 -3 8 -9 21 -13 33 -9 12 4 17 2 13 -4 -3 -5 2 -16 11 -23 15
-12 16 -12 10 4 -4 11 -3 16 4 12 6 -4 13 2 16 14 3 11 9 19 13 16 5 -3 17 6
28 20 11 13 21 22 24 20 2 -2 5 6 5 18 1 12 7 23 13 25 5 2 8 7 5 12 -3 4 4 6
15 3 16 -4 19 -2 14 12 -6 15 -4 16 15 6 12 -7 19 -17 15 -24 -4 -7 -4 -9 1
-5 4 4 14 3 22 -3 9 -9 13 -8 13 0 0 6 -4 11 -10 11 -5 0 -10 6 -10 14 0 8 -6
17 -12 19 -9 4 -10 6 -1 6 6 1 19 -6 28 -16 14 -14 18 -14 26 -2 7 11 9 9 9
-8 0 -15 6 -21 19 -20 11 0 17 5 15 9 -3 4 2 8 11 8 8 0 18 -7 21 -15 7 -17
34 -20 34 -4 0 8 5 8 15 -1 8 -7 22 -10 30 -6 9 3 13 2 10 -4 -3 -6 -1 -10 5
-10 6 0 9 -4 6 -9 -8 -12 22 -23 43 -16 10 3 17 18 18 41 3 53 9 64 39 64 l27
0 -7 -487 c-4 -269 -9 -506 -11 -528 -1 -22 -4 -56 -5 -75 l-2 -35 -8 30 c-5
18 -8 -33 -10 -130 -1 -88 -3 -173 -5 -190 -2 -16 -6 -190 -9 -385 -6 -316
-10 -473 -21 -730 -1 -41 -6 -181 -9 -310 -10 -366 -23 -689 -31 -770 -5 -47
-13 -189 -20 -332 -5 -116 -8 -142 -21 -248 -4 -30 -8 -72 -9 -93 -2 -21 -11
-47 -20 -57 -10 -11 -15 -26 -11 -35 3 -9 2 -13 -4 -10 -9 5 -15 -15 -11 -37
0 -5 -5 -7 -12 -5 -6 1 -12 -5 -12 -13 0 -8 -4 -21 -9 -29 -6 -10 -5 -12 2 -7
7 4 12 2 12 -3 0 -6 -7 -11 -15 -11 -8 0 -15 6 -15 14 0 16 -17 31 -47 40 -18
6 -22 4 -17 -7 3 -8 0 -18 -7 -23 -8 -4 -10 -3 -5 5 12 18 -11 39 -39 35 -14
-1 -25 2 -25 8 0 6 -16 7 -40 4 -30 -4 -39 -2 -35 7 4 6 0 5 -7 -4 -11 -14
-15 -14 -26 -2 -7 7 -17 11 -22 8 -4 -3 -11 2 -14 11 -3 8 -10 12 -16 9 -5 -3
-10 -2 -10 3 0 11 -30 25 -38 17 -3 -2 1 -11 8 -20 11 -13 9 -15 -13 -13 -14
1 -25 5 -25 8 2 18 -4 23 -12 10 -7 -12 -12 -12 -22 -2 -15 15 -42 16 -32 0 4
-7 3 -8 -4 -4 -7 4 -13 17 -13 29 -1 16 -3 17 -6 5 -7 -28 -33 -30 -45 -3 -6
14 -15 25 -20 25 -5 0 -7 -4 -4 -9 3 -5 -1 -11 -9 -15 -8 -3 -15 0 -15 7 0 7
-5 4 -11 -5 -9 -17 -11 -17 -31 1 -11 11 -18 24 -15 28 3 5 -3 17 -14 26 -18
16 -19 16 -19 -2 0 -11 5 -21 11 -23 7 -2 4 -10 -7 -18 -15 -13 -17 -13 -12 0
9 28 -48 62 -59 34 -5 -13 -7 -13 -14 -2 -6 10 -12 9 -24 -7 -16 -20 -16 -20
-6 2 14 28 14 33 -3 33 -8 0 -16 7 -20 15 -3 8 -12 12 -21 9 -14 -6 -13 -8 2
-20 17 -12 17 -13 -1 -10 -11 1 -23 11 -27 22 -7 18 -8 18 -8 1 -1 -10 4 -27
9 -38 9 -16 7 -19 -10 -19 -13 0 -20 -7 -20 -20 0 -14 5 -18 18 -15 9 3 4 -1
-13 -9 -16 -8 -36 -15 -42 -16 -7 0 -13 -4 -13 -10 0 -5 -7 -10 -14 -10 -12 0
-14 11 -11 48 3 30 2 38 -3 23 -8 -25 -32 -41 -32 -21 0 6 5 8 13 4 7 -5 6 -1
-3 10 -13 17 -14 17 -21 -1 -8 -22 7 -44 27 -36 20 7 17 -1 -6 -22 -16 -15
-20 -15 -15 -3 4 9 0 18 -8 21 -9 3 -18 19 -22 36 -4 17 -13 31 -20 31 -15 0
-28 -27 -19 -41 3 -5 3 -9 -1 -9 -3 0 -10 12 -15 26 -6 14 -14 22 -20 19 -5
-3 -15 -3 -21 1 -8 5 -8 9 1 14 7 5 -2 9 -23 12 -32 3 -35 2 -25 -15 6 -13 13
-16 17 -9 4 7 12 3 20 -11 13 -20 13 -21 -2 -8 -10 7 -17 10 -17 6 0 -4 -7 -1
-16 6 -14 11 -18 10 -31 -6 -11 -13 -14 -15 -10 -4 6 18 -23 22 -36 5 -5 -6
-7 -2 -4 11 3 13 0 26 -5 30 -7 3 -8 1 -4 -5 4 -7 2 -12 -3 -12 -6 0 -11 5
-11 11 0 5 -5 7 -11 3 -6 -3 -15 0 -20 7 -7 11 -9 11 -9 -3 0 -9 -9 -24 -21
-32 -13 -9 -18 -19 -14 -27 5 -8 4 -10 -3 -5 -7 4 -12 13 -12 20 0 8 -7 19
-15 26 -10 8 -12 17 -7 22 6 6 7 19 4 30 -4 15 -7 17 -13 6 -6 -9 -9 -6 -9 12
0 17 -3 21 -9 12 -9 -15 -27 65 -31 143 -3 66 -4 75 -17 105 -6 14 -11 48 -12
75 0 28 -7 102 -15 165 -7 63 -14 169 -15 234 -1 66 -5 126 -9 135 -4 9 -6 30
-4 46 2 17 5 104 8 194 3 124 1 167 -9 173 -6 4 -7 8 -2 8 7 0 10 29 8 78 -11
326 -3 1168 11 1191 2 3 7 132 11 286 3 153 8 282 10 285 2 4 5 43 6 87 1 45
5 105 10 135 4 29 13 114 19 188 6 74 14 151 16 170 3 19 6 65 8 101 2 37 6
71 9 76 4 6 9 31 11 57 3 25 9 54 15 63 7 15 23 93 26 126 0 4 5 11 10 15 6 4
11 23 12 42 1 19 6 36 12 38 6 2 9 8 5 13 -8 14 6 49 19 49 7 0 23 10 36 23
22 20 71 31 71 15z m22320 -45 c14 -13 30 -23 37 -23 13 0 27 -35 19 -49 -4
-5 -1 -11 5 -13 6 -2 11 -19 12 -38 1 -19 7 -38 12 -42 6 -4 10 -11 10 -15 3
-33 19 -111 26 -126 6 -9 12 -38 15 -63 2 -26 7 -51 11 -57 3 -5 7 -39 9 -76
2 -36 6 -84 8 -106 3 -22 8 -69 11 -105 10 -115 25 -264 29 -305 8 -71 16
-245 21 -450 3 -110 7 -234 10 -275 15 -203 20 -809 11 -1212 0 -40 3 -68 9
-68 5 0 4 -4 -2 -8 -10 -6 -12 -49 -9 -173 3 -90 6 -177 8 -194 2 -16 0 -37
-4 -46 -4 -9 -8 -69 -9 -135 -1 -65 -8 -171 -15 -234 -8 -63 -15 -137 -15
-165 -1 -27 -6 -61 -12 -75 -13 -30 -14 -39 -17 -105 -4 -78 -22 -158 -31
-143 -6 9 -9 5 -9 -12 0 -18 -3 -21 -9 -12 -6 11 -9 9 -13 -6 -3 -11 -2 -24 4
-30 5 -5 3 -14 -7 -22 -8 -7 -15 -18 -15 -26 0 -7 -5 -16 -12 -20 -7 -5 -8 -3
-3 5 4 8 -1 18 -14 27 -12 8 -21 23 -21 32 0 14 -2 14 -9 3 -5 -7 -14 -10 -20
-7 -6 4 -11 2 -11 -3 0 -6 -5 -11 -11 -11 -5 0 -7 5 -3 12 4 6 3 8 -4 5 -5 -4
-8 -17 -5 -30 3 -13 1 -17 -4 -11 -13 17 -42 13 -36 -5 4 -11 1 -9 -10 4 -13
16 -17 17 -31 6 -9 -7 -16 -10 -16 -6 0 4 -7 1 -17 -6 -15 -13 -15 -12 -2 8 8
14 16 18 20 11 4 -7 11 -4 17 9 10 17 7 18 -25 15 -21 -3 -30 -7 -23 -12 9 -5
9 -9 1 -14 -6 -4 -16 -4 -21 -1 -6 3 -14 -5 -20 -19 -5 -14 -12 -26 -15 -26
-4 0 -4 4 -1 9 9 14 -4 41 -19 41 -7 0 -16 -14 -20 -31 -4 -17 -13 -33 -22
-36 -8 -3 -12 -12 -9 -19 8 -20 2 -17 -20 8 -16 18 -17 20 -2 15 21 -8 37 13
29 36 -7 18 -8 18 -21 1 -9 -11 -10 -15 -2 -10 7 4 12 2 12 -4 0 -20 -24 -4
-32 21 -5 15 -6 7 -3 -23 3 -37 1 -48 -11 -48 -7 0 -14 5 -14 10 0 6 -6 10
-12 10 -7 1 -26 8 -43 16 -16 8 -22 12 -12 9 12 -3 17 1 17 15 0 13 -7 20 -20
20 -17 0 -19 3 -10 19 5 11 10 28 9 38 0 17 -1 17 -8 -1 -4 -11 -16 -21 -27
-22 -18 -3 -18 -2 -1 10 15 12 16 14 2 20 -9 3 -18 -1 -21 -9 -4 -8 -12 -15
-20 -15 -17 0 -17 -5 -3 -33 10 -22 10 -22 -6 -2 -12 16 -18 17 -24 7 -7 -11
-9 -11 -14 2 -11 28 -68 -6 -59 -34 5 -13 3 -13 -12 0 -11 8 -14 16 -7 18 6 2
11 12 11 23 0 18 -1 18 -19 2 -11 -9 -17 -21 -14 -26 3 -4 -4 -17 -15 -28 -20
-18 -22 -18 -31 -1 -6 9 -11 12 -11 5 0 -7 -7 -10 -15 -7 -8 4 -12 10 -9 15 3
5 1 9 -4 9 -5 0 -14 -11 -20 -25 -12 -27 -38 -25 -45 3 -3 12 -5 11 -6 -5 0
-12 -6 -25 -13 -29 -7 -4 -8 -3 -4 4 10 16 -17 15 -32 0 -10 -10 -15 -10 -22
2 -8 13 -14 8 -12 -10 0 -3 -11 -7 -25 -8 -22 -2 -24 0 -13 13 7 9 11 18 8 20
-8 8 -38 -6 -38 -17 0 -5 -5 -6 -10 -3 -6 3 -13 -1 -16 -9 -3 -9 -10 -14 -14
-11 -5 3 -15 -1 -22 -8 -11 -12 -15 -12 -26 2 -7 9 -11 10 -7 4 4 -9 -5 -11
-35 -7 -24 3 -40 2 -40 -4 0 -6 -11 -9 -25 -8 -28 4 -51 -17 -39 -35 5 -8 3
-9 -5 -5 -7 5 -10 15 -7 23 5 11 1 13 -17 7 -30 -9 -47 -24 -47 -40 0 -8 -7
-14 -15 -14 -8 0 -15 5 -15 11 0 5 5 7 12 3 7 -5 8 -3 2 7 -5 8 -9 21 -9 29 0
8 -6 14 -12 13 -7 -2 -12 0 -12 5 4 22 -2 42 -11 37 -6 -3 -7 1 -4 10 4 9 -1
24 -11 35 -9 10 -18 36 -20 57 -1 21 -5 63 -9 93 -13 106 -16 132 -21 248 -7
143 -15 285 -20 332 -8 81 -21 404 -31 770 -3 129 -8 269 -9 310 -11 257 -15
414 -21 730 -3 195 -7 369 -9 385 -2 17 -4 102 -5 190 -2 97 -5 148 -10 130
l-8 -30 -2 35 c-1 19 -4 53 -5 75 -2 22 -7 259 -11 528 l-7 487 27 0 c30 0 36
-11 39 -64 1 -20 8 -38 16 -41 19 -7 53 4 46 16 -4 5 -1 9 5 9 6 0 8 4 5 10
-3 6 1 7 10 4 8 -4 22 -1 30 6 10 9 15 9 15 1 0 -16 27 -13 34 4 3 8 13 15 21
15 9 0 14 -4 11 -8 -2 -4 4 -9 15 -9 13 -1 19 5 19 20 0 17 2 19 9 8 8 -12 12
-12 26 2 9 10 22 17 28 16 9 0 8 -2 0 -6 -7 -2 -13 -11 -13 -19 0 -8 -4 -14
-10 -14 -5 0 -10 -5 -10 -11 0 -8 4 -9 13 0 8 6 18 7 22 3 5 -4 5 -2 1 5 -4 7
3 17 15 24 19 10 21 9 15 -6 -5 -14 -2 -16 14 -12 11 3 18 1 15 -3 -3 -5 0
-10 5 -12 6 -2 12 -13 13 -25 0 -12 3 -20 5 -18 3 2 13 -7 24 -20 11 -14 23
-23 28 -20 4 3 10 -5 13 -16 3 -12 10 -18 16 -14 7 4 8 -1 4 -12 -6 -16 -5
-16 10 -4 9 7 14 18 11 23 -4 6 1 8 13 4 12 -4 25 0 33 9 10 12 16 13 28 3 9
-7 13 -8 10 -3 -4 6 5 15 18 22 13 6 22 7 18 2 -3 -5 0 -9 6 -9 6 0 8 -5 4
-12 -4 -7 -3 -8 5 -4 6 4 8 12 5 18 -4 7 -2 8 5 4 6 -4 19 -2 28 6 12 9 15 9
9 1 -5 -9 0 -13 14 -13 13 0 19 -4 14 -11 -7 -13 54 29 71 47 15 17 48 27 39
11 -5 -8 -2 -7 9 2 9 7 26 11 37 8 11 -3 23 -1 26 4 3 5 11 9 17 8 9 0 9 -2 0
-6 -7 -2 -13 -9 -13 -14 0 -13 23 -6 37 11 11 13 12 13 13 1 0 -11 4 -10 16 5
8 10 13 14 10 8 -6 -12 23 -29 32 -19 3 3 0 5 -6 5 -7 0 -12 7 -12 15 0 8 5
15 12 15 6 0 21 8 32 18 16 13 18 13 8 1 -17 -23 -2 -32 20 -12 10 9 18 13 18
8 0 -4 8 -1 17 6 15 12 16 12 10 -3 -3 -10 -1 -20 6 -24 7 -4 9 -4 5 0 -8 10
22 46 39 46 6 0 19 10 27 22 11 15 16 18 16 8 0 -10 3 -11 8 -4 10 17 84 47
108 45 15 -1 23 5 27 20 4 16 11 20 26 16 12 -3 21 -2 21 2 0 16 46 5 70 -16z
m-20893 -39 c-3 -3 -12 -4 -19 -1 -8 3 -5 6 6 6 11 1 17 -2 13 -5z m19420 -30
c-3 -3 -12 -4 -19 -1 -8 3 -5 6 6 6 11 1 17 -2 13 -5z m3397 -396 c-3 -4 -9
-8 -15 -8 -5 0 -9 4 -9 8 0 5 7 9 15 9 8 0 12 -4 9 -9z m-26120 -1283 c28 -3
52 -8 55 -12 7 -9 44 -12 149 -14 60 -1 72 -3 73 -17 0 -11 2 -12 6 -4 7 18
50 15 62 -5 10 -17 10 -17 11 0 0 13 9 17 41 17 22 0 38 -3 36 -7 -3 -5 25 -8
61 -8 117 -1 106 38 99 -378 -4 -199 -14 -684 -23 -1077 l-17 -715 27 -580
c14 -319 33 -744 41 -945 8 -201 17 -408 20 -461 4 -72 2 -96 -8 -96 -6 -1
-63 -6 -125 -13 -63 -6 -120 -9 -128 -6 -8 3 -22 1 -32 -4 -31 -17 -162 -39
-162 -26 0 6 -4 5 -9 -3 -8 -12 -12 -13 -25 -1 -9 7 -19 10 -23 6 -3 -3 0 -7
8 -7 24 -2 -64 -18 -102 -18 l-36 -1 -17 107 c-66 424 -116 973 -146 1608 -17
358 -24 1421 -11 1800 11 340 38 838 47 864 3 10 14 12 42 7 20 -4 59 -9 86
-11z m26094 -37 c0 -13 7 -126 16 -253 29 -430 39 -914 33 -1560 -8 -848 -35
-1370 -103 -1980 -16 -147 -74 -568 -79 -573 -1 -2 -26 0 -55 4 -34 4 -47 10
-38 15 7 5 8 9 2 9 -5 0 -16 -6 -22 -12 -10 -10 -15 -10 -22 2 -5 8 -10 10
-10 4 0 -8 -21 -7 -72 3 -40 8 -80 17 -88 19 -8 3 -56 8 -105 10 -50 2 -111 7
-135 12 -62 10 -90 5 -90 -18 0 -10 -4 -21 -8 -24 -5 -3 -15 -61 -23 -128 -7
-68 -15 -116 -17 -107 -1 9 9 130 23 269 14 139 30 343 35 454 6 111 17 323
25 471 54 1015 66 1624 45 2405 -6 212 -13 505 -16 652 l-6 266 44 10 c23 5
66 8 95 7 29 -1 50 2 47 7 -3 4 13 8 35 8 32 0 41 -4 41 -17 1 -17 1 -17 11 0
12 20 55 23 62 5 4 -8 6 -7 6 4 1 14 13 16 74 17 104 2 141 5 148 14 3 4 32 9
64 12 32 3 61 7 63 10 11 11 20 4 20 -17z m-24253 -2607 c-3 -6 -11 -11 -16
-11 -5 0 -4 6 3 14 14 16 24 13 13 -3z m132 13 c-3 -4 -1 -16 5 -28 10 -20 9
-20 -7 -4 -15 14 -14 38 2 38 4 0 3 -3 0 -6z m22059 -62 c-18 -16 -18 -16 -8
4 6 12 10 24 8 26 -1 3 2 2 8 -3 7 -6 4 -15 -8 -27z m149 9 c-6 -5 -25 10 -25
20 0 5 6 4 14 -3 8 -7 12 -15 11 -17z m-21308 -55 c-5 -16 -27 -19 -27 -3 0 7
7 14 15 14 9 0 14 -5 12 -11z m20283 -33 c0 -8 -5 -13 -12 -11 -18 6 -21 25
-3 25 8 0 15 -7 15 -14z m2117 -1905 c-3 -7 -5 -2 -5 12 0 14 2 19 5 13 2 -7
2 -19 0 -25z m-332 -306 c-3 -3 -11 0 -18 7 -9 10 -8 11 6 5 10 -3 15 -9 12
-12z m-11898 -5513 c5 11 7 11 15 0 8 -12 10 -12 15 0 5 11 7 11 15 0 8 -12
10 -12 15 0 5 11 7 11 15 0 8 -12 10 -12 15 0 5 11 7 11 15 0 8 -12 10 -12 15
0 5 11 7 11 15 0 8 -12 10 -12 15 0 5 11 7 11 14 0 8 -12 10 -12 18 -1 7 11 9
11 14 -2 5 -12 21 -16 72 -16 51 0 65 -3 65 -15 0 -11 12 -15 49 -15 40 0 50
-3 54 -20 3 -11 9 -20 14 -19 4 1 29 1 56 0 35 -1 47 -5 47 -16 0 -10 11 -15
35 -15 19 0 35 -4 35 -10 0 -5 11 -12 25 -16 14 -3 25 -10 25 -15 0 -5 7 -9
15 -9 8 0 15 -9 15 -20 0 -13 7 -20 19 -20 12 0 23 -9 27 -22 7 -25 38 -58 53
-58 6 0 15 -15 20 -32 5 -18 10 -27 10 -19 1 15 41 -25 41 -41 0 -14 39 -48
55 -48 9 0 15 -9 15 -21 0 -12 8 -23 20 -26 11 -3 20 -14 20 -24 0 -11 5 -19
10 -19 6 0 10 -7 10 -15 0 -8 7 -15 15 -15 8 0 15 -9 15 -19 0 -11 9 -23 20
-26 11 -3 20 -14 20 -24 0 -10 14 -32 30 -49 17 -18 30 -39 30 -47 0 -8 5 -15
10 -15 6 0 10 -9 10 -19 0 -11 9 -23 20 -26 11 -3 20 -15 20 -25 0 -29 11 -50
26 -50 8 0 23 -20 34 -45 11 -25 23 -45 27 -45 11 0 33 -50 33 -75 0 -11 9
-27 20 -35 11 -8 20 -25 20 -37 0 -13 5 -23 10 -23 6 0 10 -11 10 -25 0 -18 5
-25 18 -25 15 0 22 -13 32 -57 8 -32 21 -65 30 -73 18 -16 29 -50 37 -117 3
-24 9 -43 13 -43 5 0 11 -18 15 -40 4 -22 11 -40 16 -40 5 0 9 -20 9 -45 0
-30 4 -45 13 -45 14 0 37 -93 37 -151 0 -62 12 -108 29 -112 9 -3 -807 -5
-1814 -4 -1006 0 -1820 2 -1808 4 19 4 23 13 29 64 4 40 11 59 20 59 10 0 14
14 14 45 0 33 4 45 15 45 9 0 15 9 15 25 0 15 6 25 14 25 10 0 17 16 22 45 3
25 10 45 14 45 4 0 11 16 15 36 4 24 13 38 26 41 12 3 19 14 19 29 0 12 4 25
9 29 5 3 12 19 16 35 4 17 11 30 16 30 5 0 9 15 9 34 0 29 4 34 28 39 24 5 30
14 42 56 12 46 16 51 42 51 24 0 28 4 28 30 0 17 5 30 10 30 6 0 10 7 10 15 0
9 7 18 15 21 8 4 15 11 15 18 0 6 9 18 20 26 11 8 20 20 20 28 0 7 7 15 15 18
8 4 15 12 15 20 0 8 5 14 10 14 15 0 43 31 57 63 7 15 17 27 23 27 17 0 38 25
46 54 4 19 13 26 30 26 17 0 24 6 24 20 0 11 6 20 13 20 7 0 18 14 24 30 6 17
18 30 27 30 9 0 16 7 16 15 0 8 5 15 10 15 6 0 10 7 10 15 0 8 6 15 13 15 16
0 67 44 67 59 0 6 7 11 15 11 8 0 15 6 15 14 0 8 10 18 22 22 26 8 52 33 61
57 4 9 13 17 22 17 16 0 75 54 75 69 0 5 11 12 25 15 14 4 25 13 25 21 0 9 13
18 30 22 17 3 30 10 30 15 0 13 26 38 39 38 6 0 11 7 11 15 0 9 9 15 25 15 16
0 25 6 25 15 0 9 9 15 25 15 15 0 25 6 25 14 0 9 18 16 55 21 38 4 55 11 55
21 0 9 11 14 29 14 16 0 36 7 45 15 8 8 32 15 55 15 22 0 46 7 55 15 9 10 34
15 70 15 40 0 56 4 56 14 0 10 25 15 97 19 61 4 99 10 101 17 3 9 7 8 14 -1 8
-12 10 -12 15 0z m7833 -1919 c13 -8 13 -10 -1 -10 -16 0 -29 -19 -29 -40 0
-5 10 -19 23 -30 l22 -21 3 -1080 c3 -1033 2 -1079 -15 -1079 -10 1 -2259 0
-4998 -1 -2739 -1 -6282 -1 -7873 0 -1925 1 -2899 -2 -2912 -9 -10 -5 -24 -10
-30 -10 -8 0 -10 311 -9 1145 l1 1145 7902 0 c5084 0 7906 -4 7916 -10z
m-15898 -42 c-7 -7 -12 -8 -12 -2 0 14 12 26 19 19 2 -3 -1 -11 -7 -17z m1
-145 c3 -32 6 -515 6 -1073 1 -904 -1 -1013 -14 -996 -13 17 -15 152 -15 1073
0 946 5 1174 23 996z"/>
<path d="M6569 20391 l-29 -29 0 -5352 0 -5352 29 -29 29 -29 8357 0 8357 0
29 29 29 29 0 5352 0 5352 -29 29 -29 29 -8357 0 -8357 0 -29 -29z m5530 -208
c-103 -105 -111 -116 -243 -348 l-137 -240 -743 -745 -743 -745 -128 -225
-128 -225 -447 -450 -448 -450 -167 -240 -167 -240 -476 -477 -476 -477 -206
-613 -207 -613 -111 -3 -111 -3 134 398 c73 219 132 399 130 401 -1 2 -20 -28
-41 -66 -48 -86 -456 -672 -465 -667 -3 2 -6 -2 -6 -8 0 -10 -211 -323 -239
-356 -2 -2 -4 1459 -4 3247 l0 3252 2767 0 2768 0 -106 -107z m581 -2233 l0
-861 -132 3 -133 3 -3 70 c-1 39 -4 75 -6 81 -3 6 -35 -19 -73 -56 -76 -74
-137 -104 -249 -119 -65 -10 -168 -1 -232 20 -101 33 -219 142 -271 251 -51
108 -65 178 -65 328 0 153 20 247 77 355 44 85 146 184 227 222 180 85 385 66
515 -48 l35 -31 0 321 0 321 155 0 155 0 0 -860z m3980 655 c0 -2 -9 -19 -20
-37 -17 -28 -20 -51 -20 -145 0 -156 -3 -153 181 -153 l140 0 -15 -22 c-11
-15 -16 -45 -16 -88 0 -38 -5 -71 -12 -78 -8 -8 -51 -12 -129 -12 -96 0 -119
-3 -130 -17 -11 -13 -14 -74 -14 -302 0 -254 2 -291 18 -334 16 -39 27 -52 66
-71 62 -32 105 -39 166 -27 27 5 51 8 53 6 2 -2 -5 -16 -14 -31 -14 -20 -18
-43 -16 -88 2 -38 -2 -68 -10 -79 -17 -23 -105 -37 -234 -37 -93 0 -103 2
-145 28 -57 37 -73 56 -103 123 -38 82 -46 164 -46 491 0 267 -2 300 -17 318
-21 24 -80 27 -109 5 -40 -30 -44 -21 -44 100 l0 115 85 0 85 0 0 134 0 134
143 35 c160 39 157 39 157 32z m-5757 -320 c291 -61 462 -309 444 -640 -12
-218 -99 -380 -261 -486 -193 -127 -506 -127 -689 0 -75 52 -137 123 -178 206
-140 283 -65 656 166 820 141 101 337 139 518 100z m2797 5 c77 -13 160 -38
160 -50 0 -13 -48 -211 -52 -215 -2 -2 -33 5 -68 16 -128 40 -272 23 -368 -43
-175 -120 -201 -445 -47 -587 76 -70 136 -94 246 -99 90 -4 118 0 238 34 19 6
23 4 19 -8 -3 -8 2 -58 12 -112 l18 -97 -27 -10 c-63 -24 -154 -40 -261 -45
-141 -7 -277 18 -373 68 -124 65 -227 204 -262 349 -20 84 -20 267 0 344 85
329 395 513 765 455z m953 -5 c76 -16 172 -63 211 -104 38 -39 103 -172 112
-226 4 -31 2 -55 -6 -70 -10 -19 -12 -107 -8 -394 4 -314 3 -371 -9 -376 -8
-3 -48 -5 -89 -5 -42 0 -83 -5 -94 -12 -27 -17 -35 -3 -43 65 -8 61 -19 75
-45 56 -138 -100 -183 -118 -336 -130 -104 -9 -112 -8 -160 15 -69 31 -122 88
-160 166 -27 58 -30 75 -29 150 1 114 27 181 100 260 98 106 260 166 476 177
l117 6 0 33 c0 68 -41 128 -115 167 -48 25 -168 29 -255 8 -66 -17 -162 -57
-172 -74 -5 -8 -8 -7 -12 3 -10 26 -56 183 -56 190 0 22 185 84 310 103 60 10
200 5 263 -8z m1199 1 c73 -14 158 -43 158 -54 0 -3 -6 -13 -14 -21 -7 -9 -24
-51 -36 -94 -13 -43 -26 -80 -30 -82 -4 -2 -34 9 -68 25 -153 72 -276 55 -326
-44 -37 -75 10 -130 163 -192 128 -51 226 -103 262 -139 30 -28 41 -52 59
-118 63 -232 -39 -398 -280 -458 -81 -20 -358 -17 -430 5 -30 9 -61 20 -68 25
-12 7 -2 56 44 213 4 15 10 14 59 -7 79 -35 172 -57 246 -57 114 -1 174 33
186 105 13 82 -36 128 -205 194 -265 102 -358 254 -286 468 25 73 129 174 209
204 114 43 228 52 357 27z m-4154 -2446 c64 -39 91 -149 54 -220 -37 -70 -160
-102 -242 -62 -98 48 -99 213 0 279 45 31 140 32 188 3z m-3079 -487 c-92
-274 -225 -669 -296 -878 l-129 -380 -107 -3 c-59 -1 -107 1 -107 5 0 6 559
1670 581 1731 8 21 14 22 117 22 l109 0 -168 -497z m966 477 c278 -26 468
-113 590 -268 105 -133 153 -269 162 -457 18 -378 -127 -673 -400 -811 -76
-39 -215 -82 -322 -100 -110 -18 -375 -23 -558 -10 l-107 8 2 806 3 807 55 8
c156 23 422 31 575 17z m1668 -442 c-2 -5 -3 -68 -3 -142 l0 -135 -54 6 c-115
12 -214 -45 -268 -155 l-33 -67 -3 -352 -3 -353 -150 0 -149 0 0 538 c0 295
-3 561 -6 590 l-7 52 134 0 134 0 2 -73 c2 -39 6 -87 9 -106 l6 -35 18 42 c36
80 127 160 213 188 43 14 164 15 160 2z m2623 3 c162 -31 251 -102 307 -246
19 -49 41 -117 48 -150 14 -66 18 -230 7 -257 -7 -17 -35 -18 -382 -18 l-376
0 -15 -23 c-13 -21 -13 -29 0 -75 25 -83 134 -174 250 -207 73 -22 289 -16
375 10 75 22 86 23 80 5 -3 -8 -5 -51 -5 -95 l0 -80 -51 -17 c-122 -40 -355
-58 -508 -39 -127 17 -251 100 -326 217 -17 27 -43 85 -57 129 -23 69 -26 97
-27 210 0 150 14 219 70 333 110 226 361 350 610 303z m1446 -21 c87 -32 140
-88 177 -186 48 -129 52 -175 49 -584 l-3 -375 -102 -3 c-74 -2 -104 -7 -113
-17 -7 -8 -21 -15 -31 -15 -17 0 -18 20 -21 393 l-3 392 -28 57 c-22 45 -40
65 -88 97 -75 50 -111 58 -182 37 -63 -18 -131 -77 -162 -141 -19 -37 -20 -68
-25 -420 -3 -209 -7 -381 -8 -382 -1 -2 -49 -3 -106 -3 -80 0 -106 -3 -116
-15 -7 -8 -21 -15 -31 -15 -18 0 -19 19 -19 568 0 312 -3 577 -6 590 l-6 22
136 0 c75 0 136 -2 136 -5 0 -3 -6 -16 -14 -28 -22 -32 -10 -106 18 -116 17
-7 28 0 58 34 114 130 323 179 490 115z m-3570 -354 c-2 -297 -5 -356 -17
-366 -12 -10 -15 -49 -15 -220 0 -180 -2 -209 -16 -214 -9 -3 -58 -6 -109 -6
-52 0 -97 -4 -100 -10 -3 -5 -15 -10 -26 -10 -19 0 -19 13 -19 590 l0 590 153
0 152 0 -3 -354z m518 336 c0 -11 9 -44 19 -74 11 -33 16 -59 10 -65 -5 -5 23
-110 70 -258 44 -138 91 -290 104 -340 19 -68 28 -90 41 -89 9 1 16 -5 16 -14
0 -31 12 -2 41 104 24 86 123 410 220 722 l11 32 159 0 160 0 -26 -22 c-19
-18 -74 -152 -231 -563 -128 -336 -213 -547 -226 -557 -16 -15 -39 -18 -119
-18 -60 0 -107 -5 -119 -12 -10 -7 -21 -10 -24 -8 -5 6 -436 1165 -436 1174 0
3 74 6 165 6 154 0 165 -1 165 -18z m2300 -2351 c0 -5 -7 -14 -15 -21 -13 -11
-15 -115 -15 -829 0 -622 -3 -820 -12 -829 -8 -8 -48 -12 -114 -12 -58 0 -106
-4 -109 -10 -3 -5 -13 -10 -21 -10 -12 0 -14 118 -14 860 l0 860 150 0 c83 0
150 -4 150 -9z m-6769 -548 c-93 -274 -226 -667 -296 -874 l-127 -376 -106 -5
c-59 -3 -108 -5 -108 -4 -1 0 131 396 294 879 l295 877 108 0 108 0 -168 -497z
m979 495 c0 -2 -133 -394 -294 -873 l-294 -870 -103 -6 c-57 -3 -105 -5 -107
-4 -2 2 553 1663 579 1733 8 21 14 22 114 22 58 0 105 -1 105 -2z m921 -33
c180 -31 317 -96 423 -200 52 -51 67 -75 103 -161 68 -161 78 -214 77 -409 -1
-201 -17 -275 -90 -425 -39 -77 -62 -110 -129 -176 -67 -67 -98 -90 -176 -127
-189 -92 -353 -120 -681 -116 -125 2 -230 0 -234 -4 -4 -4 -16 -7 -26 -7 -17
0 -18 29 -16 807 l3 808 55 8 c190 28 537 30 691 2z m12979 -275 l0 -170 140
0 140 0 0 -115 0 -115 -141 0 -140 0 3 -312 c3 -348 6 -360 71 -395 33 -17
119 -22 170 -9 l27 6 0 -119 0 -119 -47 -10 c-253 -55 -436 18 -495 197 -20
61 -22 90 -26 414 l-4 347 -84 0 -84 0 0 115 0 115 85 0 85 0 0 134 0 134 143
35 c78 20 145 36 150 36 4 1 7 -75 7 -169z m-11479 -150 c71 -13 186 -70 225
-112 38 -40 88 -151 114 -255 23 -89 28 -271 8 -291 -9 -9 -107 -12 -379 -12
-414 0 -407 1 -394 -69 11 -60 40 -104 101 -154 97 -78 144 -92 314 -92 136 0
205 10 284 41 17 6 18 4 12 -22 -4 -16 -7 -45 -5 -64 7 -106 7 -104 -36 -118
-124 -42 -360 -62 -507 -44 -209 26 -365 182 -414 412 -19 91 -14 264 11 355
49 176 174 328 320 390 96 41 238 55 346 35z m2435 -1 c80 -14 170 -59 220
-108 75 -75 144 -287 144 -446 0 -126 38 -115 -393 -115 -277 0 -376 -3 -385
-12 -19 -19 -14 -70 13 -124 27 -55 95 -111 185 -153 52 -25 63 -26 210 -25
126 1 168 5 225 22 38 11 72 19 74 17 2 -3 -2 -18 -9 -34 -9 -22 -9 -42 -1
-80 6 -28 8 -57 5 -65 -12 -32 -249 -76 -402 -76 -213 2 -297 29 -408 132
-113 106 -165 243 -165 438 0 204 58 359 182 481 130 129 313 183 505 148z
m1929 -4 c92 -19 202 -75 259 -129 48 -47 91 -131 129 -251 18 -57 22 -94 22
-202 0 -72 3 -127 6 -121 14 23 16 -38 3 -89 -51 -196 -209 -352 -409 -403
-78 -20 -223 -28 -196 -11 8 5 -26 10 -90 13 -93 3 -112 8 -173 37 -130 63
-239 203 -282 361 -23 86 -23 270 -1 362 41 168 154 312 297 381 132 63 291
82 435 52z m1480 0 c133 -35 234 -124 305 -268 57 -116 73 -202 67 -362 -4
-104 -10 -146 -31 -211 -75 -234 -261 -374 -495 -374 -141 0 -241 37 -305 111
l-36 43 0 -301 0 -301 -147 -4 c-82 -2 -149 -3 -150 -3 -1 0 -3 373 -5 828
l-3 827 134 0 133 0 -17 -26 c-13 -20 -15 -37 -10 -74 10 -70 34 -73 94 -11
116 119 300 169 466 126z m1396 -12 c57 -26 106 -68 149 -131 l34 -50 60 62
c73 74 132 110 218 132 74 19 177 14 250 -11 102 -36 192 -151 228 -289 18
-73 20 -111 20 -488 l0 -408 -145 0 -145 0 0 354 c0 366 -5 429 -42 504 -81
168 -336 115 -377 -78 -7 -32 -11 -190 -11 -415 l0 -365 -145 0 -145 0 0 352
c0 204 -4 377 -11 413 -14 80 -44 133 -97 168 -105 71 -250 8 -302 -130 -19
-50 -20 -77 -20 -428 l0 -375 -150 0 -150 0 -2 590 -3 590 131 0 131 0 1 -57
c2 -32 5 -71 8 -86 l6 -28 33 44 c54 71 129 120 220 144 69 18 200 11 256 -14z
m1890 17 c126 -23 239 -103 304 -214 66 -112 104 -286 90 -412 l-7 -64 -395 0
-396 0 6 -45 c16 -110 97 -198 218 -236 102 -32 325 -21 433 20 16 7 30 10 32
8 2 -2 13 -48 24 -103 25 -119 29 -113 -104 -145 -127 -31 -343 -38 -455 -15
-114 23 -203 68 -277 141 -210 207 -220 616 -21 873 43 57 136 129 202 157 96
41 238 55 346 35z m1441 -19 c113 -43 201 -153 238 -295 18 -73 20 -111 20
-483 l0 -403 -149 0 -150 0 -3 388 c-3 379 -3 388 -26 437 -43 92 -104 135
-194 135 -68 -1 -123 -26 -170 -78 -69 -76 -68 -72 -68 -498 l0 -384 -155 0
-155 0 0 538 c0 295 -3 561 -6 590 l-7 52 135 0 135 0 7 -71 c3 -39 9 -76 12
-81 3 -5 15 4 27 19 55 70 135 122 228 148 74 21 206 14 281 -14z m-9757 -31
c-5 -22 16 -101 85 -317 85 -265 108 -340 140 -461 8 -30 16 -42 25 -38 7 2
16 -3 20 -12 5 -11 17 19 35 85 15 56 74 253 131 438 l104 335 159 0 160 0
-28 -29 c-21 -21 -81 -168 -231 -560 -112 -293 -209 -539 -215 -546 -9 -11
-37 -15 -114 -15 -77 0 -107 -4 -125 -16 -13 -9 -26 -12 -31 -8 -5 5 -103 263
-218 574 -116 311 -213 573 -217 583 -7 16 5 17 160 17 l167 0 -7 -30z"/>
<path d="M12022 18047 c-50 -16 -128 -91 -156 -151 -71 -149 -55 -380 33 -486
67 -82 203 -121 297 -85 58 22 118 75 147 129 20 37 22 59 25 215 3 147 1 181
-14 219 -22 58 -87 130 -139 153 -45 21 -139 24 -193 6z"/>
<path d="M10639 18043 c-62 -32 -107 -86 -141 -170 -20 -51 -23 -74 -23 -198
1 -121 4 -148 23 -196 47 -117 144 -191 253 -191 168 0 283 162 282 397 -2
233 -113 385 -281 385 -44 0 -72 -7 -113 -27z"/>
<path d="M14535 17659 c-158 -26 -244 -102 -245 -214 -1 -196 290 -221 384
-34 23 46 26 65 26 150 0 79 -3 98 -16 103 -20 8 -86 6 -149 -5z"/>
<path d="M9330 15593 c-19 -2 -45 -6 -57 -8 l-23 -5 0 -580 0 -580 138 0 c159
0 250 16 339 60 123 61 210 163 260 307 25 72 27 90 28 238 0 142 -3 168 -23
228 -88 252 -326 375 -662 340z"/>
<path d="M13668 15206 c-26 -7 -63 -25 -83 -40 -70 -54 -130 -162 -123 -222
l3 -29 264 -3 264 -2 -6 55 c-9 86 -49 149 -127 200 -74 49 -124 60 -192 41z"/>
<path d="M9278 12693 l-28 -4 0 -263 c0 -222 -2 -266 -15 -276 -13 -11 -15
-58 -15 -309 0 -218 3 -300 12 -309 21 -21 290 -16 382 8 194 49 316 165 376
355 31 96 39 310 16 408 -37 157 -123 265 -266 335 -47 23 -109 47 -139 52
-52 10 -267 11 -323 3z"/>
<path d="M10972 12301 c-86 -30 -152 -104 -186 -209 -28 -84 -36 -82 265 -82
l259 0 0 28 c0 94 -60 187 -154 241 -69 40 -118 46 -184 22z"/>
<path d="M13421 12309 c-49 -15 -106 -54 -135 -92 -38 -50 -78 -143 -74 -174
l3 -28 269 -3 268 -2 -6 37 c-22 120 -56 173 -144 227 -65 40 -126 51 -181 35z"/>
<path d="M15307 12286 c-130 -48 -208 -194 -210 -391 -2 -146 27 -231 102
-304 195 -189 421 -114 486 161 31 134 6 305 -59 404 -49 73 -150 137 -225
141 -31 2 -72 -3 -94 -11z"/>
<path d="M16737 12246 c-83 -30 -144 -101 -172 -200 -14 -46 -16 -88 -13 -205
4 -135 6 -150 31 -196 66 -125 239 -180 364 -117 159 82 221 354 127 563 -61
136 -205 202 -337 155z"/>
<path d="M20092 12264 c-28 -14 -64 -40 -78 -57 -31 -36 -69 -116 -79 -164
l-7 -33 256 0 256 0 0 28 c0 54 -31 133 -68 174 -73 81 -181 101 -280 52z"/>
<path d="M5270 18440 c0 -5 7 -7 15 -4 8 4 15 8 15 10 0 2 -7 4 -15 4 -8 0
-15 -4 -15 -10z"/>
<path d="M4345 14196 c-6 -6 -15 -18 -19 -26 -7 -12 -6 -12 4 -3 7 6 19 9 26
6 15 -6 18 5 6 23 -5 9 -10 9 -17 0z"/>
<path d="M3717 14183 c-12 -12 -7 -30 8 -30 10 0 12 4 5 12 -5 7 -7 15 -3 18
3 4 4 7 1 7 -2 0 -8 -3 -11 -7z"/>
<path d="M4150 14114 c8 -10 15 -20 16 -22 1 -2 4 1 7 5 3 5 -4 15 -16 23 -21
12 -21 12 -7 -6z"/>
<path d="M5047 14033 c-10 -9 -9 -23 1 -23 5 0 9 7 9 15 0 17 -1 18 -10 8z"/>
<path d="M24710 18416 c0 -2 7 -6 15 -10 8 -3 15 -1 15 4 0 6 -7 10 -15 10 -8
0 -15 -2 -15 -4z"/>
<path d="M25646 14164 c-9 -23 -8 -27 8 -21 7 3 19 0 25 -6 18 -18 12 -2 -8
22 -16 18 -20 19 -25 5z"/>
<path d="M26282 14155 c4 -4 3 -13 -2 -20 -7 -8 -5 -12 5 -12 18 0 20 23 3 33
-7 4 -10 4 -6 -1z"/>
<path d="M25847 14086 c-10 -8 -14 -16 -10 -19 5 -3 14 3 21 14 14 22 13 23
-11 5z"/>
<path d="M24953 13995 c0 -8 4 -15 9 -15 4 0 8 4 8 9 0 6 -4 12 -8 15 -5 3 -9
-1 -9 -9z"/>
<path d="M10905 4295 c-40 -10 -425 -13 -1885 -14 -1650 -1 -1838 -3 -1858
-17 -12 -8 -20 -20 -17 -25 4 -5 1553 -9 4023 -9 l4017 0 60 36 c33 20 62 38
64 40 2 2 -976 3 -2175 3 -1739 -1 -2189 -4 -2229 -14z"/>
<path d="M18625 4290 c-187 -4 -540 -10 -785 -14 -521 -7 -933 -17 -939 -22
-2 -2 229 -4 515 -5 285 0 530 -3 544 -6 14 -3 1110 -7 2435 -10 l2410 -3 6
-33 c7 -34 11 -29 14 16 2 22 -5 32 -29 45 -29 16 -160 17 -1891 17 -1463 0
-1867 3 -1895 13 -19 6 -37 11 -40 10 -3 -1 -158 -4 -345 -8z"/>
<path d="M20590 3840 c-542 -3 -990 -8 -996 -12 -6 -4 -158 -8 -337 -8 -241
-1 -327 -5 -327 -13 0 -8 -3 -7 -9 2 -6 9 -11 10 -15 2 -4 -6 -14 -11 -22 -11
-8 0 -13 4 -10 8 6 10 -77 11 -84 1 -6 -8 -173 -16 -535 -25 -126 -3 -234 -10
-240 -15 -5 -5 -57 -9 -116 -9 -77 0 -109 -4 -112 -12 -3 -10 -7 -10 -19 0
-13 10 -17 10 -21 0 -4 -10 -6 -10 -6 1 -1 11 -4 11 -16 1 -11 -9 -77 -14
-235 -16 -121 -1 -224 -6 -231 -9 -6 -4 -43 -9 -82 -11 -140 -7 -348 -22 -393
-28 -7 -1 -18 -7 -25 -13 -15 -11 -54 -11 -65 0 -4 3 -14 2 -24 -3 -10 -5
-108 -10 -219 -10 -157 -1 -208 -5 -231 -16 -16 -9 -40 -14 -52 -13 -13 1 -30
-1 -38 -4 -8 -3 -49 -8 -90 -10 -41 -3 -95 -9 -120 -15 -25 -6 -109 -11 -187
-12 -79 0 -143 -4 -145 -9 -2 -6 -27 -11 -56 -12 -29 -2 -55 -6 -58 -11 -3 -4
-38 -8 -79 -8 -41 0 -77 -5 -80 -10 -4 -6 -57 -10 -126 -10 -66 0 -118 -3
-116 -8 3 -4 -7 -8 -21 -8 -15 -1 -58 -4 -97 -8 -38 -3 -101 -8 -139 -11 -38
-3 -72 -7 -76 -10 -4 -2 -40 -5 -81 -6 -41 -1 -77 -6 -81 -12 -5 -8 -14 -7
-32 1 -14 6 -28 7 -31 2 -3 -5 -13 -9 -23 -9 -68 1 -113 -5 -120 -17 -6 -12
-85 -17 -211 -15 l-35 1 30 31 c37 39 278 250 364 319 36 28 67 54 70 57 6 6
-7328 -7 -7351 -13 -26 -7 -50 -100 -63 -238 -11 -109 -25 -748 -27 -1151 l-1
-290 7734 -3 c4253 -1 7761 0 7796 4 l63 6 -6 471 c-10 928 -26 1175 -74 1215
-13 10 -123 12 -551 10 -295 -2 -979 -5 -1520 -8z m-6490 -433 c0 -2 -10 -12
-22 -23 l-23 -19 19 23 c18 21 26 27 26 19z"/>
<path d="M22250 26240 c8 -5 20 -10 25 -10 6 0 3 5 -5 10 -8 5 -19 10 -25 10
-5 0 -3 -5 5 -10z"/>
<path d="M22300 26220 c8 -5 20 -10 25 -10 6 0 3 5 -5 10 -8 5 -19 10 -25 10
-5 0 -3 -5 5 -10z"/>
<path d="M22350 26200 c8 -5 20 -10 25 -10 6 0 3 5 -5 10 -8 5 -19 10 -25 10
-5 0 -3 -5 5 -10z"/>
<path d="M22400 26180 c8 -5 20 -10 25 -10 6 0 3 5 -5 10 -8 5 -19 10 -25 10
-5 0 -3 -5 5 -10z"/>
<path d="M22450 26160 c8 -5 20 -10 25 -10 6 0 3 5 -5 10 -8 5 -19 10 -25 10
-5 0 -3 -5 5 -10z"/>
<path d="M22710 26050 c8 -5 20 -10 25 -10 6 0 3 5 -5 10 -8 5 -19 10 -25 10
-5 0 -3 -5 5 -10z"/>
<path d="M22890 25970 c8 -5 20 -10 25 -10 6 0 3 5 -5 10 -8 5 -19 10 -25 10
-5 0 -3 -5 5 -10z"/>
<path d="M23030 25905 c14 -8 30 -14 35 -14 6 0 -1 6 -15 14 -14 8 -29 14 -35
14 -5 0 1 -6 15 -14z"/>
<path d="M23480 25685 c0 -2 18 -14 40 -25 22 -11 40 -18 40 -15 0 2 -18 14
-40 25 -22 11 -40 18 -40 15z"/>
<path d="M23630 25606 c0 -3 9 -10 20 -16 11 -6 20 -8 20 -6 0 3 -9 10 -20 16
-11 6 -20 8 -20 6z"/>
<path d="M23720 25556 c0 -3 9 -10 20 -16 11 -6 20 -8 20 -6 0 3 -9 10 -20 16
-11 6 -20 8 -20 6z"/>
<path d="M23810 25506 c0 -3 9 -10 20 -16 11 -6 20 -8 20 -6 0 3 -9 10 -20 16
-11 6 -20 8 -20 6z"/>
<path d="M24130 25316 c0 -3 9 -10 20 -16 11 -6 20 -8 20 -6 0 3 -9 10 -20 16
-11 6 -20 8 -20 6z"/>
<path d="M24350 25176 c0 -3 9 -10 20 -16 11 -6 20 -8 20 -6 0 3 -9 10 -20 16
-11 6 -20 8 -20 6z"/>
<path d="M24166 25051 c-3 -5 2 -15 12 -22 15 -12 16 -12 5 2 -7 9 -10 19 -6
22 3 4 4 7 0 7 -3 0 -8 -4 -11 -9z"/>
<path d="M24620 24996 c0 -2 14 -14 30 -26 17 -12 30 -19 30 -16 0 2 -13 14
-30 26 -16 12 -30 19 -30 16z"/>
<path d="M24570 24929 c0 -5 5 -7 10 -4 6 3 10 8 10 11 0 2 -4 4 -10 4 -5 0
-10 -5 -10 -11z"/>
<path d="M24720 24926 c0 -2 8 -10 18 -17 15 -13 16 -12 3 4 -13 16 -21 21
-21 13z"/>
<path d="M3570 19957 c0 -2 15 -16 33 -33 l32 -29 -29 33 c-28 30 -36 37 -36
29z"/>
<path d="M26927 11839 c12 -12 24 -21 27 -18 2 2 -8 13 -22 23 l-27 19 22 -24z"/>
<path d="M26841 11786 c-12 -14 -12 -16 4 -10 14 6 16 4 10 -7 -8 -12 -6 -12
8 0 18 14 23 26 8 17 -5 -4 -11 -1 -13 5 -2 7 -9 5 -17 -5z"/>
<path d="M26845 11740 c-3 -5 -1 -10 4 -10 6 0 11 5 11 10 0 6 -2 10 -4 10 -3
0 -8 -4 -11 -10z"/>
<path d="M26816 11711 c-4 -5 -2 -12 3 -15 5 -4 12 -2 15 3 4 5 2 12 -3 15 -5
4 -12 2 -15 -3z"/>
</g>
</svg>
